HIERARCHY
ROOT Root
{
	OFFSET 0.00000 0.00000 0.00000
	CHANNELS 6 Xposition Yposition Zposition Zrotation Xrotation Yrotation
	JOINT Hips
	{
		OFFSET 0 0 0	
		CHANNELS 3 Zrotation Xrotation Yrotation
		JOINT Spine
		{
			OFFSET 0 4 0	
			CHANNELS 3 Zrotation Xrotation Yrotation
			JOINT Spine1
			{
				OFFSET 0 19.4 0	
				CHANNELS 3 Zrotation Xrotation Yrotation
				JOINT Spine2
				{
					OFFSET 0 16.6 0	
					CHANNELS 3 Zrotation Xrotation Yrotation
					JOINT LeftCollar
					{
						OFFSET 0 10 0	
						CHANNELS 3 Zrotation Xrotation Yrotation
						JOINT LeftArm
						{
							OFFSET 15.6 -2 3	
							CHANNELS 3 Zrotation Xrotation Yrotation
							JOINT LeftForeArm
							{
								OFFSET 3.5 -27 -1	
								CHANNELS 3 Zrotation Xrotation Yrotation
								JOINT LeftHand
								{
									OFFSET 1 -27 1	
									CHANNELS 3 Zrotation Xrotation Yrotation
									End Site
									{
										OFFSET 0 -15 0
									}
								}
							}
						}
					}
					JOINT RightCollar
					{
						OFFSET 0 10 0	
						CHANNELS 3 Zrotation Xrotation Yrotation
						JOINT RightArm
						{
							OFFSET -15.6 -2 3	
							CHANNELS 3 Zrotation Xrotation Yrotation
							JOINT RightForeArm
							{
								OFFSET -3.5 -27 -1	
								CHANNELS 3 Zrotation Xrotation Yrotation
								JOINT RightHand
								{
									OFFSET -1 -27 1	
									CHANNELS 3 Zrotation Xrotation Yrotation
									End Site
									{
										OFFSET 0 -15 0
									}
								}
							}
						}
					}
					JOINT Neck
					{
						OFFSET 0 10 0	
						CHANNELS 3 Zrotation Xrotation Yrotation
						JOINT Head
						{
							OFFSET 0 12.7 3	
							CHANNELS 3 Zrotation Xrotation Yrotation
							End Site
							{
								OFFSET 0 12.7 3
							}
						}
					}
				}
			}
		}
	}
	JOINT LeftHip
	{
		OFFSET 0 0 0	
		CHANNELS 3 Zrotation Xrotation Yrotation
		JOINT LeftUpLeg
		{
			OFFSET 8.8 -6 0	
			CHANNELS 3 Zrotation Xrotation Yrotation
			JOINT LeftLeg
			{
				OFFSET 0 -39 2	
				CHANNELS 3 Zrotation Xrotation Yrotation
				JOINT LeftFoot
				{
					OFFSET 0 -43 -2	
					CHANNELS 3 Zrotation Xrotation Yrotation
					JOINT LeftFootFront
					{
						OFFSET 0 -7 8.5	
						CHANNELS 3 Zrotation Xrotation Yrotation
						End Site
						{
							OFFSET 0 -0.5 9
						}
					}
				}
				JOINT LeftHeel
				{
					OFFSET 0 -43 -2	
					CHANNELS 3 Zrotation Xrotation Yrotation
					End Site
					{
						OFFSET 0 -7.5 -5
					}
				}
			}
		}
	}
	JOINT RightHip
	{
		OFFSET 0 0 0	
		CHANNELS 3 Zrotation Xrotation Yrotation
		JOINT RightUpLeg
		{
			OFFSET -8.8 -6 0	
			CHANNELS 3 Zrotation Xrotation Yrotation
			JOINT RightLeg
			{
				OFFSET 0 -39 2	
				CHANNELS 3 Zrotation Xrotation Yrotation
				JOINT RightFoot
				{
					OFFSET 0 -43 -2	
					CHANNELS 3 Zrotation Xrotation Yrotation
					JOINT RightFootFront
					{
						OFFSET 0 -7 8.5	
						CHANNELS 3 Zrotation Xrotation Yrotation
						End Site
						{
							OFFSET 0 -0.5 9
						}
					}
				}
				JOINT RightHeel
				{
					OFFSET 0 -43 -2	
					CHANNELS 3 Zrotation Xrotation Yrotation
					End Site
					{
						OFFSET 0 -7.5 -5
					}
				}
			}
		}
	}
}
MOTION
Frames: 11
Frame Time: 0.025
0 95.514 0 -0 0 -0 -1.1202 3.1816 -2.2221 -3.7727 -3.4148 1.237 -3.7727 -3.4148 1.237 -3.1734 -2.863 1.054 -0 0 -0 13.142 -2.9184 -1.5566 1.2661 0.50366 -7.775 13.446 -2.4503 -28.361 -0 0 -0 17.293 3.3744 -4.6728 -13.832 -11.953 5.3805 -10.064 14.443 24.516 8.5549 0.34195 2.2692 8.5549 0.34195 2.2692 -1.1202 3.1816 -2.2221 2.3087 -5.6632 -17.112 3.0351 1.8113 9.1589 -4.7326 1.2028 11.046 0 0 -4.0239e-09 -0 0 -0 -1.1202 3.1816 -2.2221 1.0448 -5.5573 -22.46 -12.33 3.3182 2.5078 11.508 -1.2918 22.867 0 0 -1.8369e-09 -0 0 -0 
0 95.513 0 -0 0 -0 -1.1119 3.1721 -2.2104 -3.764 -3.416 1.2298 -3.764 -3.416 1.2298 -3.1661 -2.8641 1.048 -0 0 -0 13.113 -2.9063 -1.5428 1.2748 0.51374 -7.7672 13.434 -2.4588 -28.37 -0 0 -0 17.259 3.3884 -4.6708 -13.829 -11.947 5.385 -10.065 14.439 24.519 8.5461 0.34883 2.2755 8.5461 0.34883 2.2755 -1.1119 3.1721 -2.2104 2.2971 -5.6458 -17.122 3.0474 1.7993 9.1449 -4.7402 1.207 11.058 0.0081236 -0.0055511 0.0021618 -0 0 -0 -1.1119 3.1721 -2.2104 1.0318 -5.5546 -22.474 -12.334 3.3277 2.5258 11.534 -1.4445 22.942 -0 0 -0 -0 0 -0 
0 95.512 0 -0 0 -0 -1.1128 3.1485 -2.1941 -3.7479 -3.4055 1.2215 -3.7479 -3.4055 1.2215 -3.1525 -2.8553 1.0409 -0 0 -0 13.073 -2.9088 -1.523 1.2872 0.52319 -7.756 13.406 -2.4672 -28.375 -0 0 -0 17.214 3.3789 -4.6657 -13.821 -11.945 5.3903 -10.083 14.436 24.534 8.5328 0.34665 2.2845 8.5328 0.34664 2.2845 -1.1128 3.1485 -2.1941 2.2964 -5.6109 -17.136 3.0515 1.7926 9.1249 -4.7337 1.1968 11.077 -0.0090609 -0.005062 0.0029723 -0 0 -0 -1.1128 3.1485 -2.1941 1.0302 -5.5322 -22.493 -12.345 3.3212 2.5473 11.544 -1.4421 22.922 -0 0 -0 -0 0 -0 
0 95.51 0 -0 0 -0 -1.1214 3.1287 -2.1766 -3.7313 -3.3924 1.2132 -3.7313 -3.3924 1.2132 -3.1385 -2.8444 1.0338 -0 0 -0 13.039 -2.9194 -1.5013 1.2995 0.52957 -7.7464 13.375 -2.4726 -28.379 -0 0 -0 17.186 3.345 -4.6606 -13.806 -11.929 5.3982 -10.12 14.426 24.553 8.522 0.3411 2.2934 8.522 0.3411 2.2934 -1.1214 3.1287 -2.1766 2.3135 -5.5775 -17.151 3.0521 1.7946 9.1031 -4.7518 1.1712 11.098 -0.018175 -0.014061 0.0030957 -0 0 -0 -1.1214 3.1287 -2.1766 1.0494 -5.4987 -22.512 -12.361 3.2855 2.5649 11.553 -1.4286 22.901 -0.058428 0.12506 -0.087526 -0 0 -0 
0 95.508 0 -0 0 -0 -1.1165 3.1233 -2.1578 -3.7261 -3.3856 1.2034 -3.7261 -3.3856 1.2034 -3.1341 -2.8387 1.0255 -0 0 -0 13.025 -2.9302 -1.4779 1.3091 0.53683 -7.7406 13.353 -2.4687 -28.386 -0 0 -0 17.181 3.3083 -4.6565 -13.786 -11.905 5.408 -10.167 14.408 24.569 8.5192 0.34068 2.3017 8.5192 0.34068 2.3017 -1.1165 3.1233 -2.1578 2.3173 -5.5575 -17.168 3.0557 1.8004 9.0804 -4.7802 1.13 11.122 -0.013159 -0.022625 0.0031373 -0 0 -0 -1.1165 3.1233 -2.1578 1.0641 -5.4814 -22.534 -12.382 3.2432 2.5835 11.457 -1.3184 22.789 -0.020829 0.0057066 0.0017562 -0 0 -0 
0 95.506 0 -0 0 -0 -1.0974 3.1201 -2.1378 -3.732 -3.3803 1.1921 -3.732 -3.3803 1.1921 -3.139 -2.8343 1.016 -0 0 -0 13.027 -2.9415 -1.452 1.3148 0.54182 -7.7398 13.343 -2.4601 -28.397 -0 0 -0 17.188 3.2781 -4.6495 -13.761 -11.882 5.4185 -10.214 14.383 24.576 8.5255 0.33835 2.3101 8.5255 0.33835 2.3101 -1.0974 3.1201 -2.1378 2.3006 -5.5414 -17.189 3.0624 1.8099 9.0568 -4.7999 1.08 11.148 0.0003084 -0.028062 0.0035104 -0 0 -0 -1.0974 3.1201 -2.1378 1.0623 -5.4818 -22.559 -12.402 3.2137 2.6054 11.561 -1.3915 22.858 -0.077191 0.13559 -0.082962 -0 0 -0 
0 95.504 0 -0 0 -0 -1.0744 3.1159 -2.1165 -3.7419 -3.3749 1.1796 -3.7419 -3.3749 1.1796 -3.1473 -2.8298 1.0056 -0 0 -0 13.037 -2.9502 -1.4239 1.3188 0.5406 -7.744 13.342 -2.4509 -28.408 -0 0 -0 17.197 3.2529 -4.6399 -13.738 -11.852 5.4326 -10.247 14.349 24.569 8.5407 0.32731 2.3187 8.5407 0.32731 2.3187 -1.0744 3.1159 -2.1165 2.2828 -5.5268 -17.213 3.0634 1.8204 9.0345 -4.8029 1.0275 11.175 0.011419 -0.02912 0.0042289 -0 0 -0 -1.0744 3.1159 -2.1165 1.047 -5.4911 -22.588 -12.411 3.1967 2.6288 11.556 -1.3721 22.839 -0 0 -0 -0 0 -0 
0 95.503 0 -0 0 -0 -1.0626 3.1166 -2.0948 -3.7457 -3.3715 1.1665 -3.7457 -3.3715 1.1665 -3.1504 -2.827 0.99452 -0 0 -0 13.042 -2.9522 -1.3957 1.3249 0.53463 -7.7509 13.338 -2.4448 -28.417 -0 0 -0 17.195 3.2314 -4.6306 -13.72 -11.818 5.4513 -10.265 14.305 24.555 8.558 0.31546 2.3279 8.558 0.31546 2.3279 -1.0626 3.1166 -2.0948 2.2868 -5.5173 -17.237 3.0563 1.8271 9.0129 -4.7967 0.97749 11.202 0.017188 -0.022329 0.0042514 -0 0 -0 -1.0626 3.1166 -2.0948 1.0415 -5.5071 -22.619 -12.413 3.1845 2.6537 11.545 -1.3548 22.82 -0 0 -0 -0 0 -0 
0 95.501 0 -0 0 -0 -1.0708 3.1132 -2.075 -3.7361 -3.3646 1.1548 -3.7361 -3.3646 1.1548 -3.1423 -2.8213 0.98467 -0 0 -0 13.031 -2.9543 -1.3695 1.3324 0.52762 -7.7559 13.322 -2.4446 -28.421 -0 0 -0 17.171 3.2142 -4.6208 -13.7 -11.79 5.4687 -10.275 14.254 24.543 8.5656 0.30531 2.3379 8.5656 0.30532 2.3379 -1.0708 3.1132 -2.075 2.3168 -5.5006 -17.256 3.0548 1.8295 8.9885 -4.7962 0.93732 11.231 0.020108 -0.0025299 0.0036008 -0 0 -0 -1.0708 3.1132 -2.075 1.0615 -5.518 -22.647 -12.422 3.1711 2.6788 11.536 -1.3386 22.802 -0 0 -0 -0 0 -0 
0 95.5 0 -0 0 -0 -1.0847 3.0942 -2.058 -3.7186 -3.3494 1.1454 -3.7186 -3.3494 1.1454 -3.1276 -2.8086 0.9766 -0 0 -0 13.005 -2.962 -1.3453 1.3351 0.52078 -7.7561 13.298 -2.4498 -28.423 -0 0 -0 17.129 3.2037 -4.609 -13.679 -11.775 5.4806 -10.28 14.203 24.538 8.5645 0.29348 2.3485 8.5645 0.29348 2.3485 -1.0847 3.0942 -2.058 2.3531 -5.4659 -17.27 3.0548 1.8285 8.9621 -4.7983 0.91839 11.259 0.0092261 0.015088 0.0032541 -0 0 -0 -1.0847 3.0942 -2.058 1.0913 -5.5109 -22.673 -12.438 3.154 2.7039 11.53 -1.3227 22.785 -0 0 -0 -0 0 -0 
0 95.499 0 -0 0 -0 -1.0951 3.0758 -2.0422 -3.6979 -3.3382 1.1364 -3.6979 -3.3382 1.1364 -3.1101 -2.7993 0.96888 -0 0 -0 12.964 -2.9612 -1.3229 1.3376 0.5193 -7.7541 13.272 -2.4609 -28.425 -0 0 -0 17.073 3.2038 -4.5985 -13.662 -11.762 5.4913 -10.275 14.158 24.535 8.5574 0.2884 2.3583 8.5574 0.2884 2.3583 -1.0951 3.0758 -2.0422 2.3868 -5.4316 -17.283 3.0423 1.8239 8.9372 -4.8023 0.91588 11.285 -0.0074981 0.018588 0.0032043 -0 0 -0 -1.0951 3.0758 -2.0422 1.1178 -5.5032 -22.699 -12.455 3.1384 2.7296 11.526 -1.3097 22.769 -0 0 -0 -0 0 -0 
